<svg width="101" height="100" viewBox="0 0 101 100" fill="none" xmlns="http://www.w3.org/2000/svg">
<path d="M63 70C61.6193 70 60.5 68.8807 60.5 67.5V37.5C60.5 36.1193 61.6193 35 63 35H70.5C76.0229 35 80.5 39.4772 80.5 45C80.5 47.0583 79.8781 48.9713 78.8121 50.5615C82.7071 51.9283 85.5 55.638 85.5 60C85.5 65.5229 81.0229 70 75.5 70H63ZM65.5 65H75.5C78.2614 65 80.5 62.7614 80.5 60C80.5 57.2386 78.2614 55 75.5 55H65.5V65ZM65.5 50H70.5C73.2614 50 75.5 47.7614 75.5 45C75.5 42.2386 73.2614 40 70.5 40H65.5V50ZM55.25 10H88C94.9036 10 100.5 15.5964 100.5 22.5V87.5C100.5 94.4036 94.9036 100 88 100H58C51.8502 100 46.7376 95.5589 45.6945 89.7088C44.8267 89.8995 43.9251 90 43 90H13C6.09644 90 0.5 84.4036 0.5 77.5V12.5C0.5 5.59644 6.09644 0 13 0H43C49.0474 0 54.0918 4.2944 55.25 10ZM55.5 15V77.5C55.5 81.5895 53.5361 85.2204 50.5 87.5009C50.5005 91.6426 53.8582 95 58 95H88C92.1421 95 95.5 91.6421 95.5 87.5V22.5C95.5 18.3579 92.1421 15 88 15H55.5ZM33.3003 47.4822C33.2018 47.4939 33.1016 47.5 33 47.5H23C22.8984 47.5 22.7982 47.4939 22.6997 47.4822L20.3212 53.4285C19.8084 54.7104 18.3535 55.334 17.0715 54.8212C15.7896 54.3084 15.166 52.8535 15.6788 51.5715L25.6788 26.5715C26.517 24.4762 29.483 24.4762 30.3212 26.5715L40.3212 51.5715C40.834 52.8535 40.2104 54.3084 38.9285 54.8212C37.6465 55.334 36.1916 54.7104 35.6788 53.4285L33.3003 47.4822ZM31.3074 42.5L28 34.2315L24.6926 42.5H31.3074ZM43 5H13C8.85786 5 5.5 8.35786 5.5 12.5V77.5C5.5 81.6421 8.85786 85 13 85H43C47.1421 85 50.5 81.6421 50.5 77.5V12.5C50.5 8.35786 47.1421 5 43 5ZM23 80C21.6193 80 20.5 78.8807 20.5 77.5C20.5 76.1193 21.6193 75 23 75H33C34.3807 75 35.5 76.1193 35.5 77.5C35.5 78.8807 34.3807 80 33 80H23ZM68 90C66.6193 90 65.5 88.8807 65.5 87.5C65.5 86.1193 66.6193 85 68 85H78C79.3807 85 80.5 86.1193 80.5 87.5C80.5 88.8807 79.3807 90 78 90H68Z" fill="white"/>
</svg>
