<svg width="120" height="120" viewBox="0 0 120 120" fill="none" xmlns="http://www.w3.org/2000/svg">
<g clip-path="url(#clip0_117_2)">
<path d="M57.33 32.2256C51.2003 32.2256 46.213 37.2127 46.213 43.3423C46.213 49.472 51.2001 54.4593 57.33 54.4593C63.4599 54.4593 68.4467 49.4722 68.4467 43.3423C68.4465 37.2122 63.4596 32.2256 57.33 32.2256ZM57.33 50.3624C53.4592 50.3624 50.3097 47.213 50.3097 43.3421C50.3097 39.4711 53.459 36.322 57.33 36.322C61.2007 36.322 64.35 39.4713 64.35 43.3421C64.3498 47.213 61.2005 50.3624 57.33 50.3624Z" fill="white"/>
<path d="M105.955 28.8384C101.938 28.8384 98.6691 32.107 98.6691 36.1245C98.6691 40.1419 101.938 43.4105 105.955 43.4105C109.973 43.4105 113.241 40.1419 113.241 36.1245C113.241 32.107 109.972 28.8384 105.955 28.8384ZM105.955 39.3139C104.197 39.3139 102.766 37.883 102.766 36.1245C102.766 34.3659 104.196 32.9351 105.955 32.9351C107.714 32.9351 109.145 34.3659 109.145 36.1245C109.144 37.8832 107.714 39.3139 105.955 39.3139Z" fill="white"/>
<path d="M111.749 9.23408L81.9625 9.23291C77.413 9.23291 73.7117 12.9354 73.7117 17.4863V26.8899H61.4295C61.4266 26.8899 61.4243 26.8897 61.4215 26.8897H16.6975C16.6923 26.8897 16.6872 26.8899 16.6815 26.8899H8.75397C3.92698 26.8899 0 30.8171 0 35.6439V88.2413C0 93.0683 3.92698 96.9953 8.75397 96.9953H40.1176L37.3522 108.229C37.3498 108.238 37.3489 108.248 37.3468 108.258C37.3355 108.307 37.3266 108.357 37.3189 108.407C37.3151 108.432 37.3107 108.456 37.3076 108.48C37.302 108.529 37.2994 108.578 37.2973 108.629C37.2961 108.654 37.2938 108.679 37.2936 108.705C37.2936 108.709 37.2929 108.714 37.2929 108.719C37.2929 108.78 37.2966 108.84 37.3018 108.9C37.3025 108.908 37.302 108.916 37.3029 108.923C37.3102 108.998 37.3224 109.073 37.3376 109.145C37.3395 109.155 37.3425 109.163 37.3447 109.173C37.359 109.236 37.3756 109.297 37.3953 109.358C37.4009 109.375 37.4079 109.392 37.414 109.409C37.4326 109.46 37.4525 109.511 37.475 109.561C37.4843 109.581 37.4944 109.602 37.5045 109.622C37.527 109.667 37.5507 109.712 37.576 109.755C37.5886 109.776 37.6011 109.797 37.6144 109.818C37.6411 109.86 37.67 109.901 37.6997 109.941C37.7098 109.954 37.7183 109.969 37.729 109.983C37.7337 109.988 37.7391 109.994 37.7438 109.999C37.7799 110.044 37.8181 110.087 37.8577 110.129C37.8683 110.14 37.8779 110.152 37.8889 110.163C37.9397 110.214 37.9929 110.262 38.049 110.307C38.0637 110.319 38.0792 110.33 38.0942 110.341C38.1369 110.374 38.1802 110.406 38.2252 110.435C38.2447 110.448 38.2648 110.46 38.2847 110.472C38.3276 110.498 38.3712 110.522 38.4165 110.545C38.4373 110.555 38.4582 110.565 38.4793 110.575C38.5255 110.597 38.5721 110.616 38.6201 110.634C38.6412 110.642 38.6621 110.65 38.6832 110.657C38.7329 110.674 38.7835 110.689 38.8346 110.702C38.8554 110.707 38.8756 110.713 38.8962 110.718C38.9504 110.73 39.0052 110.739 39.061 110.746C39.0795 110.748 39.0978 110.752 39.1168 110.754C39.1906 110.762 39.2654 110.767 39.3411 110.767H64.0348H80.2469C81.3784 110.767 82.2953 109.85 82.2953 108.719C82.2953 107.588 81.3784 106.671 80.2469 106.671H66.6481L69.0296 96.996L104.854 96.9948C109.173 96.9948 112.687 93.4825 112.687 89.1648V71.4459C116.797 70.9785 120 67.4819 120 63.2493V17.4856C120.001 12.9354 116.299 9.23408 111.749 9.23408ZM84.362 17.4856C84.362 15.1948 86.2258 13.331 88.5168 13.331H111.749C114.04 13.3308 115.904 15.1945 115.904 17.4856V19.9003H84.362V17.4856ZM84.3618 23.9965H115.904V56.4795H114.925L104.617 45.1366C104.229 44.7096 103.678 44.4658 103.101 44.4658C102.524 44.4658 101.973 44.7094 101.585 45.1366L98.6586 48.3565L91.3915 40.3626C91.0033 39.9358 90.4528 39.6921 89.8758 39.6921C89.299 39.6921 88.7484 39.9356 88.3603 40.3628L84.362 44.7616V23.9965H84.3618ZM109.389 56.4795H106.043L101.427 51.402L103.101 49.56L109.389 56.4795ZM84.3623 50.6888L84.4436 50.7626L89.8762 44.7858L100.507 56.4795H84.3623V50.6888ZM77.8084 17.4865C77.8084 15.398 79.3574 13.669 81.3651 13.3779C80.6671 14.5887 80.2651 15.9905 80.2651 17.4858V63.2488C80.2651 64.7429 80.6664 66.1445 81.3639 67.3546C79.3567 67.0628 77.8082 65.3354 77.8082 63.2488V17.4865H77.8084ZM12.9613 72.9923L29.4394 56.0562L51.3459 80.1511H12.9613V72.9923ZM47.4667 69.7917L52.3884 64.3759L66.7236 80.1506H56.8818V80.1509L47.4667 69.7917ZM9.81453 92.8984H8.75397C6.18591 92.8986 4.09667 90.8094 4.09667 88.2413V35.6439C4.09667 33.0758 6.18591 30.9866 8.75397 30.9866H9.81453C9.20913 32.0975 8.8646 33.3707 8.8646 34.7221V89.1638C8.8646 90.5153 9.2089 91.7877 9.81453 92.8984ZM62.4295 106.67H41.9548L44.3364 96.9953H64.811L62.4295 106.67ZM108.591 89.1643C108.591 91.2228 106.915 92.8977 104.855 92.8977H16.6975C14.6373 92.8977 12.9613 91.2231 12.9613 89.1643V84.2478H108.591V89.1643ZM108.591 80.1511H72.2591L53.9046 59.953C53.5162 59.526 52.9659 59.2822 52.3886 59.2822C51.8116 59.2822 51.261 59.5257 50.8729 59.953L44.6985 66.7469L31.0055 51.6893C30.6253 51.2714 30.0895 51.0289 29.5247 51.0195C28.9542 51.0176 28.4158 51.2342 28.0221 51.6392L12.9615 67.1181V34.7223C12.9615 32.665 14.6333 30.991 16.6897 30.9868H73.712V63.2488C73.712 67.798 77.4132 71.4993 81.9627 71.4993L108.591 71.5V80.1511H108.591ZM115.904 63.2486C115.904 65.5396 114.04 67.4034 111.749 67.4034L88.5009 67.4027C86.2171 67.394 84.3618 65.5342 84.3618 63.2486V60.5762H115.904V63.2486H115.904Z" fill="white"/>
</g>
<defs>
<clipPath id="clip0_117_2">
<rect width="120" height="120" fill="white"/>
</clipPath>
</defs>
</svg>
