<svg width="120" height="102" viewBox="0 0 120 102" fill="none" xmlns="http://www.w3.org/2000/svg">
<path d="M57.33 23.2253C51.2003 23.2253 46.213 28.2123 46.213 34.342C46.213 40.4717 51.2001 45.459 57.33 45.459C63.4599 45.459 68.4467 40.4719 68.4467 34.342C68.4465 28.2119 63.4596 23.2253 57.33 23.2253ZM57.33 41.3621C53.4592 41.3621 50.3097 38.2127 50.3097 34.3418C50.3097 30.4708 53.459 27.3217 57.33 27.3217C61.2007 27.3217 64.35 30.471 64.35 34.3418C64.3498 38.2127 61.2005 41.3621 57.33 41.3621Z" fill="white"/>
<path d="M105.955 19.8383C101.938 19.8383 98.6691 23.1069 98.6691 27.1244C98.6691 31.1418 101.938 34.4104 105.955 34.4104C109.973 34.4104 113.241 31.1418 113.241 27.1244C113.241 23.1069 109.972 19.8383 105.955 19.8383ZM105.955 30.3138C104.197 30.3138 102.766 28.8829 102.766 27.1244C102.766 25.3658 104.196 23.935 105.955 23.935C107.714 23.935 109.145 25.3658 109.145 27.1244C109.144 28.8831 107.714 30.3138 105.955 30.3138Z" fill="white"/>
<path d="M111.749 0.234081L81.9625 0.23291C77.413 0.23291 73.7117 3.93536 73.7117 8.48625V17.8899H61.4295C61.4266 17.8899 61.4243 17.8897 61.4215 17.8897H16.6975C16.6923 17.8897 16.6872 17.8899 16.6815 17.8899H8.75397C3.92698 17.8899 0 21.8171 0 26.6439V79.2413C0 84.0683 3.92698 87.9953 8.75397 87.9953H40.1176L37.3522 99.2285C37.3498 99.2381 37.3489 99.248 37.3468 99.2576C37.3355 99.3068 37.3266 99.3567 37.3189 99.4073C37.3151 99.4317 37.3107 99.4559 37.3076 99.4805C37.302 99.529 37.2994 99.5784 37.2973 99.6286C37.2961 99.6537 37.2938 99.6792 37.2936 99.7045C37.2936 99.7095 37.2929 99.7141 37.2929 99.7188C37.2929 99.78 37.2966 99.8405 37.3018 99.9002C37.3025 99.908 37.302 99.9157 37.3029 99.9234C37.3102 99.9984 37.3224 100.073 37.3376 100.145C37.3395 100.155 37.3425 100.163 37.3447 100.173C37.359 100.236 37.3756 100.297 37.3953 100.358C37.4009 100.375 37.4079 100.392 37.414 100.409C37.4326 100.46 37.4525 100.511 37.475 100.561C37.4843 100.581 37.4944 100.602 37.5045 100.622C37.527 100.667 37.5507 100.712 37.576 100.755C37.5886 100.776 37.6011 100.797 37.6144 100.818C37.6411 100.86 37.67 100.901 37.6997 100.941C37.7098 100.954 37.7183 100.969 37.729 100.983C37.7337 100.988 37.7391 100.994 37.7438 100.999C37.7799 101.044 37.8181 101.087 37.8577 101.129C37.8683 101.14 37.8779 101.152 37.8889 101.163C37.9397 101.214 37.9929 101.262 38.049 101.307C38.0637 101.319 38.0792 101.33 38.0942 101.341C38.1369 101.374 38.1802 101.406 38.2252 101.435C38.2447 101.448 38.2648 101.46 38.2847 101.472C38.3276 101.498 38.3712 101.522 38.4165 101.545C38.4373 101.555 38.4582 101.565 38.4793 101.575C38.5255 101.597 38.5721 101.616 38.6201 101.634C38.6412 101.642 38.6621 101.65 38.6832 101.657C38.7329 101.674 38.7835 101.689 38.8346 101.702C38.8554 101.707 38.8756 101.713 38.8962 101.718C38.9504 101.73 39.0052 101.739 39.061 101.746C39.0795 101.748 39.0978 101.752 39.1168 101.754C39.1906 101.762 39.2654 101.767 39.3411 101.767H80.2469C81.3784 101.767 82.2953 100.85 82.2953 99.7188C82.2953 98.5877 81.3784 97.6706 80.2469 97.6706H66.6481L69.0296 87.996L104.854 87.9948C109.173 87.9948 112.687 84.4825 112.687 80.1648V62.4459C116.797 61.9785 120 58.4819 120 54.2493V8.48555C120.001 3.93536 116.299 0.234081 111.749 0.234081ZM84.362 8.48555C84.362 6.19475 86.2258 4.33099 88.5168 4.33099H111.749C114.04 4.33075 115.904 6.19452 115.904 8.48555V10.9003H84.362V8.48555ZM84.3618 14.9965H115.904V47.4795H114.925L104.617 36.1366C104.229 35.7096 103.678 35.4658 103.101 35.4658C102.524 35.4658 101.973 35.7094 101.585 36.1366L98.6586 39.3565L91.3915 31.3626C91.0033 30.9358 90.4528 30.6921 89.8758 30.6921C89.299 30.6921 88.7484 30.9356 88.3603 31.3628L84.362 35.7616L84.3618 14.9965ZM109.389 47.4795H106.043L101.427 42.402L103.101 40.56L109.389 47.4795ZM84.3623 41.6888L84.4436 41.7626L89.8762 35.7858L100.507 47.4795H84.3623V41.6888ZM77.8084 8.48649C77.8084 6.39796 79.3574 4.66896 81.3651 4.37786C80.6671 5.58865 80.2651 6.99046 80.2651 8.48579V54.2488C80.2651 55.7429 80.6664 57.1445 81.3639 58.3546C79.3567 58.0628 77.8082 56.3354 77.8082 54.2488L77.8084 8.48649ZM12.9613 63.9923L29.4394 47.0562L51.3459 71.1511H12.9613V63.9923ZM47.4667 60.7917L52.3884 55.3759L66.7236 71.1506H56.8818L47.4667 60.7917ZM9.81453 83.8984H8.75397C6.18591 83.8986 4.09667 81.8094 4.09667 79.2413V26.6439C4.09667 24.0758 6.18591 21.9866 8.75397 21.9866H9.81453C9.20913 23.0975 8.8646 24.3707 8.8646 25.7221V80.1638C8.8646 81.5153 9.2089 82.7877 9.81453 83.8984ZM62.4295 97.6699H41.9548L44.3364 87.9953H64.811L62.4295 97.6699ZM108.591 80.1643C108.591 82.2228 106.915 83.8977 104.855 83.8977H16.6975C14.6373 83.8977 12.9613 82.2231 12.9613 80.1643V75.2478H108.591V80.1643ZM108.591 71.1511H72.2591L53.9046 50.953C53.5162 50.526 52.9659 50.2822 52.3886 50.2822C51.8116 50.2822 51.261 50.5257 50.8729 50.953L44.6985 57.7469L31.0055 42.6893C30.6253 42.2714 30.0895 42.0289 29.5247 42.0195C28.9542 42.0176 28.4158 42.2342 28.0221 42.6392L12.9615 58.1181V25.7223C12.9615 23.665 14.6333 21.991 16.6897 21.9868H73.712V54.2488C73.712 58.798 77.4132 62.4993 81.9627 62.4993L108.591 62.5L108.591 71.1511ZM115.904 54.2486C115.904 56.5396 114.04 58.4034 111.749 58.4034L88.5009 58.4027C86.2171 58.394 84.3618 56.5342 84.3618 54.2486V51.5762H115.904L115.904 54.2486Z" fill="white"/>
</svg>
