<svg width="86" height="100" viewBox="0 0 86 100" fill="none" xmlns="http://www.w3.org/2000/svg">
<path d="M67.8694 38.7097H42.0629V25.8064C42.0629 16.9129 49.2984 9.67742 58.1919 9.67742V6.45161C47.5194 6.45161 38.8371 15.1339 38.8371 25.8064V38.7097H6.57902C3.02096 38.7097 0.127411 41.6032 0.127411 45.1613V83.8709C0.127411 87.429 3.02096 90.3226 6.57902 90.3226H24.321V96.7742H21.0952V100H53.3532V96.7742H50.1274V90.3226H67.8694C71.4274 90.3226 74.321 87.429 74.321 83.8709V45.1613C74.321 41.6032 71.4274 38.7097 67.8694 38.7097ZM46.9016 96.7742H27.5468V90.3226H46.9016V96.7742ZM71.0952 83.8709C71.0952 85.65 69.6484 87.0968 67.8694 87.0968H6.57902C4.79999 87.0968 3.35322 85.65 3.35322 83.8709V80.6451H71.0952V83.8709ZM71.0952 77.4193H3.35322V45.1613C3.35322 43.3822 4.79999 41.9355 6.57902 41.9355H38.8371V45.1613C38.8371 50.7935 35.9306 55.7532 31.5435 58.6387C29.8565 54.5226 25.8113 51.6129 21.0952 51.6129C14.8694 51.6129 9.80483 56.679 9.80483 62.9032C9.80483 69.1274 14.8694 74.1935 21.0952 74.1935C27.321 74.1935 32.3855 69.1274 32.3855 62.9032C32.3855 62.5742 32.3645 62.25 32.3355 61.9274C38.1387 58.5822 42.0629 52.3274 42.0629 45.1613V41.9355H67.8694C69.6484 41.9355 71.0952 43.3822 71.0952 45.1613V77.4193ZM22.7081 64.5161C24.9532 64.5161 27.1016 64.1113 29.1097 63.4048C28.8435 67.6145 25.3694 70.9677 21.0952 70.9677C16.6484 70.9677 13.0306 67.35 13.0306 62.9032C13.0306 58.4564 16.6484 54.8387 21.0952 54.8387C24.5694 54.8387 27.5097 57.0581 28.6419 60.1451C26.8032 60.8758 24.8048 61.2903 22.7081 61.2903H19.4823V64.5161H22.7081Z" fill="white"/>
<path d="M54.9661 45.1613H51.7403V48.3871H54.9661V45.1613Z" fill="white"/>
<path d="M61.4177 45.1613H58.1919V48.3871H61.4177V45.1613Z" fill="white"/>
<path d="M67.8694 45.1613H64.6436V48.3871H67.8694V45.1613Z" fill="white"/>
<path d="M54.2984 16.129H61.679L85.8726 8.06452L61.679 0H54.2984L62.3629 8.06452L54.2984 16.129ZM62.5516 3.69032L75.6726 8.06452L62.5516 12.4387L66.9242 8.06452L62.5516 3.69032Z" fill="white"/>
<path d="M48.5145 70.9677H64.6435V54.8387H48.5145V70.9677ZM51.7403 58.0645H61.4177V67.7419H51.7403V58.0645Z" fill="white"/>
</svg>
