<svg width="78" height="100" viewBox="0 0 78 100" fill="currentColor" xmlns="http://www.w3.org/2000/svg">
<path d="M60.9498 5.1V4.09959C60.9498 1.83905 59.1107 0 56.8502 0H21.1498C18.8893 0 17.0502 1.83905 17.0502 4.09959V5.1H0.47522V100H77.5248V5.1H60.9498ZM20.1494 4.09959C20.1494 3.55723 20.6074 3.09917 21.1498 3.09917H56.8502C57.3926 3.09917 57.8506 3.55723 57.8506 4.09959V14.2996C57.8506 14.8419 57.3926 15.3 56.8502 15.3H21.1498C20.6074 15.3 20.1494 14.8419 20.1494 14.2996V4.09959ZM21.15 18.3992H56.8504C58.5626 18.3992 60.031 17.3432 60.6436 15.8492H65.5008V87.9756H12.4994V15.8492H17.3566C17.9692 17.3432 19.4378 18.3992 21.15 18.3992ZM74.4258 96.9008H3.57439V8.19917H17.0504V12.75H9.40022V91.0748H68.5998V12.75H60.9498V8.19917H74.4258V96.9008Z" fill="white"/>
<path d="M50.475 7.6499H27.5248V10.7491H50.475V7.6499Z" fill="white"/>
<path d="M26.2498 28.0503H18.5998V31.1495H26.2498V28.0503Z" fill="white"/>
<path d="M59.4003 28.0503H31.35V31.1495H59.4003V28.0503Z" fill="white"/>
<path d="M26.2498 43.3506H18.5998V46.4498H26.2498V43.3506Z" fill="white"/>
<path d="M59.4003 43.3506H31.35V46.4498H59.4003V43.3506Z" fill="white"/>
<path d="M26.2498 58.6504H18.5998V61.7496H26.2498V58.6504Z" fill="white"/>
<path d="M59.4003 58.6504H31.35V61.7496H59.4003V58.6504Z" fill="white"/>
<path d="M26.2498 73.9507H18.5998V77.0499H26.2498V73.9507Z" fill="white"/>
<path d="M59.4003 73.9507H31.35V77.0499H59.4003V73.9507Z" fill="white"/>
</svg>
